<svg width="20" height="21" viewBox="0 0 20 21" fill="none" xmlns="http://www.w3.org/2000/svg">
<g clip-path="url(#clip0_3_5045)">
<path d="M11.2484 2.11474C10.8706 1.89659 10.442 1.78174 10.0056 1.78174C9.56933 1.78174 9.1407 1.89659 8.76284 2.11474L2.54887 5.70228C2.29697 5.84771 2.08779 6.05689 1.94235 6.30879C1.79691 6.56069 1.72034 6.84643 1.72034 7.13729V18.2587C1.72034 18.4784 1.80763 18.6891 1.96301 18.8445C2.11839 18.9999 2.32913 19.0872 2.54887 19.0872H7.52005C7.73979 19.0872 7.95053 18.9999 8.10591 18.8445C8.26129 18.6891 8.34858 18.4784 8.34858 18.2587V13.2875H11.6627V18.2587C11.6627 18.4784 11.75 18.6891 11.9054 18.8445C12.0608 18.9999 12.2715 19.0872 12.4912 19.0872H17.4624C17.6822 19.0872 17.8929 18.9999 18.0483 18.8445C18.2036 18.6891 18.2909 18.4784 18.2909 18.2587V7.13729C18.2909 6.84643 18.2144 6.56069 18.0689 6.30879C17.9235 6.05689 17.7143 5.84771 17.4624 5.70228L11.2484 2.11474Z" fill="white"/>
</g>
<defs>
<clipPath id="clip0_3_5045">
<rect width="19.8847" height="19.8847" fill="white" transform="translate(0.0633545 0.859619)"/>
</clipPath>
</defs>
</svg>
