<svg width="20" height="21" viewBox="0 0 20 21" fill="none" xmlns="http://www.w3.org/2000/svg">
<path d="M12.077 1.91058C12.2029 1.83786 12.3458 1.79958 12.4912 1.79958C12.6367 1.79958 12.7795 1.83786 12.9055 1.91058L17.8767 4.78061C18.0026 4.85333 18.1072 4.95792 18.1799 5.08387C18.2527 5.20981 18.2909 5.35269 18.2909 5.49812V17.5416C18.2909 17.7614 18.2036 17.9721 18.0483 18.1275C17.8929 18.2829 17.6822 18.3702 17.4624 18.3702H12.4912C12.2715 18.3702 12.0608 18.2829 11.9054 18.1275C11.75 17.9721 11.6627 17.7614 11.6627 17.5416V2.62809C11.6627 2.48266 11.701 2.33979 11.7737 2.21384C11.8464 2.08789 11.951 1.9833 12.077 1.91058ZM13.3198 4.0631V16.7131H16.6339V5.97618L13.3198 4.0631ZM2.54887 18.3702C2.32913 18.3702 2.11839 18.2829 1.96301 18.1275C1.80763 17.9721 1.72034 17.7614 1.72034 17.5416V2.62809C1.72034 2.40835 1.80763 2.19761 1.96301 2.04223C2.11839 1.88685 2.32913 1.79956 2.54887 1.79956C2.76861 1.79956 2.97935 1.88685 3.13473 2.04223C3.29011 2.19761 3.3774 2.40835 3.3774 2.62809V17.5416C3.3774 17.7614 3.29011 17.9721 3.13473 18.1275C2.97935 18.2829 2.76861 18.3702 2.54887 18.3702ZM7.52005 18.3702C7.30031 18.3702 7.08957 18.2829 6.93419 18.1275C6.77881 17.9721 6.69152 17.7614 6.69152 17.5416V2.62809C6.69152 2.40835 6.77881 2.19761 6.93419 2.04223C7.08957 1.88685 7.30031 1.79956 7.52005 1.79956C7.73979 1.79956 7.95053 1.88685 8.10591 2.04223C8.26129 2.19761 8.34858 2.40835 8.34858 2.62809V17.5416C8.34858 17.7614 8.26129 17.9721 8.10591 18.1275C7.95053 18.2829 7.73979 18.3702 7.52005 18.3702Z" fill="white" fill-opacity="0.698"/>
</svg>
